<svg width="90" height="90" viewBox="0 0 90 90" fill="none" xmlns="http://www.w3.org/2000/svg">
<path opacity="0.6" d="M89 59.6667L73.9129 44.5796C72.0793 42.7465 69.5927 41.7168 67 41.7168C64.4073 41.7168 61.9207 42.7465 60.0871 44.5796L15.6667 89M10.7778 1H79.2222C84.6223 1 89 5.37766 89 10.7778V79.2222C89 84.6223 84.6223 89 79.2222 89H10.7778C5.37766 89 1 84.6223 1 79.2222V10.7778C1 5.37766 5.37766 1 10.7778 1ZM40.1111 30.3333C40.1111 35.7335 35.7335 40.1111 30.3333 40.1111C24.9332 40.1111 20.5556 35.7335 20.5556 30.3333C20.5556 24.9332 24.9332 20.5556 30.3333 20.5556C35.7335 20.5556 40.1111 24.9332 40.1111 30.3333Z" stroke="black" stroke-width="2" stroke-linecap="round" stroke-linejoin="round"/>
</svg>
