<svg width="100" height="100" viewBox="0 0 100 100" fill="none" xmlns="http://www.w3.org/2000/svg">
<path d="M29.167 79.1667H20.0628C18.7485 79.1705 17.4556 78.8345 16.3094 78.1913C15.1632 77.5481 14.2027 76.6196 13.5212 75.4958C12.8666 74.3672 12.5205 73.0861 12.5176 71.7814C12.5147 70.4767 12.855 69.1941 13.5045 68.0625L29.9837 39.5833M29.9837 39.5833L34.5545 56.65M29.9837 39.5833L12.917 44.1583M45.8337 79.1667H80.0128C81.3208 79.1566 82.6042 78.8101 83.7396 78.1607C84.8751 77.5112 85.8243 76.5807 86.4962 75.4583C87.1416 74.3328 87.4813 73.0579 87.4813 71.7604C87.4813 70.4629 87.1416 69.188 86.4962 68.0625L81.3878 59.2292M45.8337 79.1667L58.3337 66.6667M45.8337 79.1667L58.3337 91.6667M38.9337 24.2125L43.4878 16.3292C44.1418 15.1892 45.0793 14.2375 46.2094 13.5666C47.3395 12.8957 48.6239 12.5283 49.9378 12.5C51.2417 12.4976 52.5234 12.8382 53.654 13.4876C54.7847 14.1371 55.7246 15.0725 56.3795 16.2L72.8087 44.7125M72.8087 44.7125L55.742 40.1375M72.8087 44.7125L77.3795 27.6458" stroke="#3A5A40" stroke-width="2" stroke-linecap="round" stroke-linejoin="round"/>
</svg>
